<?xml version="1.0" encoding="UTF-8" standalone="no"?>
<!-- Created with Inkscape (http://www.inkscape.org/) -->

<svg
   width="512"
   height="512"
   viewBox="0 0 512 512"
   version="1.1"
   id="svg1"
   xml:space="preserve"
   inkscape:version="1.4.2 (ebf0e940, 2025-05-08)"
   sodipodi:docname="logo_green_512.svg"
   inkscape:export-filename="logo_inverted_512.png"
   inkscape:export-xdpi="96"
   inkscape:export-ydpi="96"
   xmlns:inkscape="http://www.inkscape.org/namespaces/inkscape"
   xmlns:sodipodi="http://sodipodi.sourceforge.net/DTD/sodipodi-0.dtd"
   xmlns="http://www.w3.org/2000/svg"
   xmlns:svg="http://www.w3.org/2000/svg"><sodipodi:namedview
     id="namedview1"
     pagecolor="#ffffff"
     bordercolor="#000000"
     borderopacity="0.25"
     inkscape:showpageshadow="2"
     inkscape:pageopacity="0.0"
     inkscape:pagecheckerboard="0"
     inkscape:deskcolor="#d1d1d1"
     inkscape:document-units="px"
     inkscape:zoom="0.5"
     inkscape:cx="193"
     inkscape:cy="238"
     inkscape:window-width="1472"
     inkscape:window-height="821"
     inkscape:window-x="0"
     inkscape:window-y="38"
     inkscape:window-maximized="0"
     inkscape:current-layer="layer1" /><defs
     id="defs1"><filter
       inkscape:label="Age"
       inkscape:menu="Image Effects"
       inkscape:menu-tooltip="Imitate aged photograph"
       style="color-interpolation-filters:sRGB;"
       id="filter410"
       x="-0.040135666"
       y="-0.01490954"
       width="1.0802713"
       height="1.0298191"><feColorMatrix
         type="saturate"
         in="SourceGraphic"
         values="0"
         id="feColorMatrix408" /><feColorMatrix
         values="3 0 0 0 -0.3 0 3 0 0 -0.3 0 0 3 0 -0.3 0 0 0 1 0"
         result="result0"
         id="feColorMatrix409" /><feTurbulence
         baseFrequency="0.111"
         numOctaves="2"
         type="fractalNoise"
         id="feTurbulence409" /><feColorMatrix
         values="0 0 0 0 0 0 0 0 0 0 0 0 0 0 0 0 0 0 255 -200"
         id="feColorMatrix410" /><feGaussianBlur
         stdDeviation="1"
         id="feGaussianBlur410" /><feComposite
         in2="result0"
         operator="atop"
         id="feComposite410" /></filter><filter
       inkscape:label="Age"
       inkscape:menu="Image Effects"
       inkscape:menu-tooltip="Imitate aged photograph"
       style="color-interpolation-filters:sRGB;"
       id="filter413"
       x="-0.04011456"
       y="-0.011986842"
       width="1.0802291"
       height="1.0239737"><feColorMatrix
         type="saturate"
         in="SourceGraphic"
         values="0"
         id="feColorMatrix411" /><feColorMatrix
         values="3 0 0 0 -0.3 0 3 0 0 -0.3 0 0 3 0 -0.3 0 0 0 1 0"
         result="result0"
         id="feColorMatrix412" /><feTurbulence
         baseFrequency="0.111"
         numOctaves="2"
         type="fractalNoise"
         id="feTurbulence412" /><feColorMatrix
         values="0 0 0 0 0 0 0 0 0 0 0 0 0 0 0 0 0 0 255 -200"
         id="feColorMatrix413" /><feGaussianBlur
         stdDeviation="1"
         id="feGaussianBlur413" /><feComposite
         in2="result0"
         operator="atop"
         id="feComposite413" /></filter><filter
       inkscape:label="Age"
       inkscape:menu="Image Effects"
       inkscape:menu-tooltip="Imitate aged photograph"
       style="color-interpolation-filters:sRGB;"
       id="filter416"
       x="-0.04011456"
       y="-0.011986842"
       width="1.0802291"
       height="1.0239737"><feColorMatrix
         type="saturate"
         in="SourceGraphic"
         values="0"
         id="feColorMatrix414" /><feColorMatrix
         values="3 0 0 0 -0.3 0 3 0 0 -0.3 0 0 3 0 -0.3 0 0 0 1 0"
         result="result0"
         id="feColorMatrix415" /><feTurbulence
         baseFrequency="0.111"
         numOctaves="2"
         type="fractalNoise"
         id="feTurbulence415" /><feColorMatrix
         values="0 0 0 0 0 0 0 0 0 0 0 0 0 0 0 0 0 0 255 -200"
         id="feColorMatrix416" /><feGaussianBlur
         stdDeviation="1"
         id="feGaussianBlur416" /><feComposite
         in2="result0"
         operator="atop"
         id="feComposite416" /></filter><filter
       inkscape:label="Age"
       inkscape:menu="Image Effects"
       inkscape:menu-tooltip="Imitate aged photograph"
       style="color-interpolation-filters:sRGB;"
       id="filter419"
       x="-0.040046721"
       y="-0.03003481"
       width="1.0800934"
       height="1.0600696"><feColorMatrix
         type="saturate"
         in="SourceGraphic"
         values="0"
         id="feColorMatrix417" /><feColorMatrix
         values="3 0 0 0 -0.3 0 3 0 0 -0.3 0 0 3 0 -0.3 0 0 0 1 0"
         result="result0"
         id="feColorMatrix418" /><feTurbulence
         baseFrequency="0.111"
         numOctaves="2"
         type="fractalNoise"
         id="feTurbulence418" /><feColorMatrix
         values="0 0 0 0 0 0 0 0 0 0 0 0 0 0 0 0 0 0 255 -200"
         id="feColorMatrix419" /><feGaussianBlur
         stdDeviation="1"
         id="feGaussianBlur419" /><feComposite
         in2="result0"
         operator="atop"
         id="feComposite419" /></filter><filter
       inkscape:label="Age"
       inkscape:menu="Image Effects"
       inkscape:menu-tooltip="Imitate aged photograph"
       style="color-interpolation-filters:sRGB;"
       id="filter422"
       x="-0.040046721"
       y="-0.03003481"
       width="1.0800934"
       height="1.0600696"><feColorMatrix
         type="saturate"
         in="SourceGraphic"
         values="0"
         id="feColorMatrix420" /><feColorMatrix
         values="3 0 0 0 -0.3 0 3 0 0 -0.3 0 0 3 0 -0.3 0 0 0 1 0"
         result="result0"
         id="feColorMatrix421" /><feTurbulence
         baseFrequency="0.111"
         numOctaves="2"
         type="fractalNoise"
         id="feTurbulence421" /><feColorMatrix
         values="0 0 0 0 0 0 0 0 0 0 0 0 0 0 0 0 0 0 255 -200"
         id="feColorMatrix422" /><feGaussianBlur
         stdDeviation="1"
         id="feGaussianBlur422" /><feComposite
         in2="result0"
         operator="atop"
         id="feComposite422" /></filter><filter
       inkscape:label="Age"
       inkscape:menu="Image Effects"
       inkscape:menu-tooltip="Imitate aged photograph"
       style="color-interpolation-filters:sRGB;"
       id="filter425"
       x="-0.040046721"
       y="-0.03003481"
       width="1.0800934"
       height="1.0600696"><feColorMatrix
         type="saturate"
         in="SourceGraphic"
         values="0"
         id="feColorMatrix423" /><feColorMatrix
         values="3 0 0 0 -0.3 0 3 0 0 -0.3 0 0 3 0 -0.3 0 0 0 1 0"
         result="result0"
         id="feColorMatrix424" /><feTurbulence
         baseFrequency="0.111"
         numOctaves="2"
         type="fractalNoise"
         id="feTurbulence424" /><feColorMatrix
         values="0 0 0 0 0 0 0 0 0 0 0 0 0 0 0 0 0 0 255 -200"
         id="feColorMatrix425" /><feGaussianBlur
         stdDeviation="1"
         id="feGaussianBlur425" /><feComposite
         in2="result0"
         operator="atop"
         id="feComposite425" /></filter><filter
       inkscape:label="Age"
       inkscape:menu="Image Effects"
       inkscape:menu-tooltip="Imitate aged photograph"
       style="color-interpolation-filters:sRGB;"
       id="filter428"
       x="-0.040135666"
       y="-0.03003481"
       width="1.0802713"
       height="1.0600696"><feColorMatrix
         type="saturate"
         in="SourceGraphic"
         values="0"
         id="feColorMatrix426" /><feColorMatrix
         values="3 0 0 0 -0.3 0 3 0 0 -0.3 0 0 3 0 -0.3 0 0 0 1 0"
         result="result0"
         id="feColorMatrix427" /><feTurbulence
         baseFrequency="0.111"
         numOctaves="2"
         type="fractalNoise"
         id="feTurbulence427" /><feColorMatrix
         values="0 0 0 0 0 0 0 0 0 0 0 0 0 0 0 0 0 0 255 -200"
         id="feColorMatrix428" /><feGaussianBlur
         stdDeviation="1"
         id="feGaussianBlur428" /><feComposite
         in2="result0"
         operator="atop"
         id="feComposite428" /></filter></defs><g
     inkscape:groupmode="layer"
     id="layer3"
     inkscape:label="clean up "
     transform="translate(2.4836845,10.072651)"
     style="display:inline"><path
       id="rect1"
       style="display:none;fill:#39713e;fill-opacity:1;stroke:none;stroke-opacity:1"
       inkscape:label="circle"
       d="M 253.51632,-10.072651 A 256,256 0 0 0 -2.4836845,245.88243 a 256,256 0 0 0 0,0.0449 256,256 0 0 0 0,0.0449 256,256 0 0 0 255.9550745,255.95508 h 0.0898 a 256,256 0 0 0 255.95508,-256 256,256 0 0 0 -256,-256.000001 z" /><rect
       style="display:inline;fill:#39713e;fill-opacity:1;stroke:none;stroke-opacity:1"
       id="rect1-8"
       width="512"
       height="512"
       x="-2.4836845"
       y="-10.072651"
       ry="0.55546612"
       inkscape:label="background" /><path
       id="path1"
       style="display:inline;fill:#ffffff;fill-opacity:1;stroke-width:5.39516"
       inkscape:label="dot1"
       d="m 424.98684,203.07499 c 17.72963,0 32.00294,15.24264 32.00294,34.17634 v 16.98914 c 0,18.9337 -14.27331,34.17635 -32.00294,34.17635 -17.72963,0 -32.00293,-15.24265 -32.00293,-34.17635 v -16.98914 c 0,-18.9337 14.2733,-34.17634 32.00293,-34.17634 z m -342.941054,0 c 17.729629,0 32.002934,15.24264 32.002934,34.17634 v 16.98914 c 0,18.9337 -14.273305,34.17635 -32.002934,34.17635 -17.729628,0 -32.002939,-15.24265 -32.002939,-34.17635 v -16.98914 c 0,-18.9337 14.273311,-34.17634 32.002939,-34.17634 z M 253.63678,350.61384 c 17.72964,0 32.00294,15.24265 32.00294,34.17634 v 16.98914 c 0,18.9337 -14.2733,34.17634 -32.00294,34.17634 -17.72963,0 -32.00293,-15.24264 -32.00293,-34.17634 v -16.98914 c 0,-18.93369 14.2733,-34.17634 32.00293,-34.17634 z m 0.39406,-294.7148 c 17.72963,0 32.00294,15.242649 32.00294,34.176343 v 16.989147 c 0,18.93369 -14.27331,34.17634 -32.00294,34.17634 -17.72963,0 -32.00294,-15.24265 -32.00294,-34.17634 V 90.075383 c 0,-18.933694 14.27331,-34.176343 32.00294,-34.176343 z m 80.21488,84.01431 c 6.48896,2.11907 10.38165,6.43173 12.89388,14.285 0.74463,2.32768 0.92681,5.56257 1.19516,21.22148 0.41993,24.50288 0.82237,25.70243 12.48042,37.2 8.12531,8.01346 10.50385,13.262 11.51923,25.41859 0.85315,10.21434 0.23946,89.05199 -0.72138,92.6727 -8.01913,30.21789 -55.54594,29.4516 -61.93907,-0.99866 -1.11913,-5.33046 -1.1036,-167.7148 0.0165,-172.46664 3.02147,-12.81798 14.20556,-20.71235 24.55527,-17.33247 z m -162.40368,212.271 c -6.48894,-2.11907 -10.38164,-6.43175 -12.89388,-14.28501 -0.74461,-2.32767 -0.9268,-5.56256 -1.19516,-21.22147 -0.41993,-24.50288 -0.82236,-25.70242 -12.48041,-37.20001 -8.12532,-8.01346 -10.50385,-13.262 -11.51923,-25.41858 -0.85316,-10.21434 -0.23946,-89.05199 0.72137,-92.67269 8.01914,-30.2179 55.54596,-29.45161 61.93907,0.99865 1.11914,5.33047 1.10362,167.7148 -0.0165,172.46665 -3.02147,12.81797 -14.20557,20.71233 -24.55526,17.33246 z m 72.16391,-21.14627 c -11.12062,-2.38842 -19.81423,-11.13421 -22.06025,-22.19265 -1.40531,-6.91909 -0.90687,-123.32713 0.54707,-127.76614 9.60113,-29.31306 55.05091,-27.42885 61.69358,2.55764 1.26159,5.69511 0.91861,121.50095 -0.37305,125.95749 -4.84642,16.72129 -21.07964,25.4659 -39.80735,21.44366 z" /></g><g
     inkscape:groupmode="layer"
     id="layer1"
     inkscape:label="inverted"
     style="display:none"><path
       id="rect8-1-3-5"
       style="display:inline;fill:#39713e;fill-opacity:1;stroke-width:5.39516"
       inkscape:label="dot1"
       d="m 427.47053,213.14764 c 17.72963,0 32.00294,15.24264 32.00294,34.17634 v 16.98914 c 0,18.9337 -14.27331,34.17635 -32.00294,34.17635 -17.72963,0 -32.00293,-15.24265 -32.00293,-34.17635 v -16.98914 c 0,-18.9337 14.2733,-34.17634 32.00293,-34.17634 z m -342.941058,0 c 17.729628,0 32.002938,15.24264 32.002938,34.17634 v 16.98914 c 0,18.9337 -14.27331,34.17635 -32.002938,34.17635 -17.729628,0 -32.002939,-15.24265 -32.002939,-34.17635 v -16.98914 c 0,-18.9337 14.273311,-34.17634 32.002939,-34.17634 z M 256.12047,360.68649 c 17.72964,0 32.00294,15.24265 32.00294,34.17634 v 16.98914 c 0,18.9337 -14.2733,34.17634 -32.00294,34.17634 -17.72963,0 -32.00293,-15.24264 -32.00293,-34.17634 v -16.98914 c 0,-18.93369 14.2733,-34.17634 32.00293,-34.17634 z m 0.39406,-294.714799 c 17.72963,0 32.00294,15.242649 32.00294,34.176339 v 16.98915 c 0,18.93369 -14.27331,34.17634 -32.00294,34.17634 -17.72963,0 -32.00294,-15.24265 -32.00294,-34.17634 v -16.98915 c 0,-18.93369 14.27331,-34.176339 32.00294,-34.176339 z M 336.72941,149.986 c 6.48896,2.11907 10.38165,6.43173 12.89388,14.285 0.74463,2.32768 0.92681,5.56257 1.19516,21.22148 0.41993,24.50288 0.82237,25.70243 12.48042,37.2 8.12531,8.01346 10.50385,13.262 11.51923,25.41859 0.85315,10.21434 0.23946,89.05199 -0.72138,92.6727 -8.01913,30.21789 -55.54594,29.4516 -61.93907,-0.99866 -1.11913,-5.33046 -1.1036,-167.7148 0.0165,-172.46664 3.02147,-12.81798 14.20556,-20.71235 24.55527,-17.33247 z M 174.32573,362.257 c -6.48894,-2.11907 -10.38164,-6.43175 -12.89388,-14.28501 -0.74461,-2.32767 -0.9268,-5.56256 -1.19516,-21.22147 -0.41993,-24.50288 -0.82236,-25.70242 -12.48041,-37.20001 -8.12532,-8.01346 -10.50385,-13.262 -11.51923,-25.41858 -0.85316,-10.21434 -0.23946,-89.05199 0.72137,-92.67269 8.01914,-30.2179 55.54596,-29.45161 61.93907,0.99865 1.11914,5.33047 1.10362,167.7148 -0.0165,172.46665 -3.02147,12.81797 -14.20557,20.71233 -24.55526,17.33246 z m 72.16391,-21.14627 c -11.12062,-2.38842 -19.81423,-11.13421 -22.06025,-22.19265 -1.40531,-6.91909 -0.90687,-123.32713 0.54707,-127.76614 9.60113,-29.31306 55.05091,-27.42885 61.69358,2.55764 1.26159,5.69511 0.91861,121.50095 -0.37305,125.95749 -4.84642,16.72129 -21.07964,25.4659 -39.80735,21.44366 z" /></g></svg>
